<svg version="1.1" preserveAspectRatio="none" xmlns="http://www.w3.org/2000/svg" width="500" height="500" viewBox="0 0 500 500"><rect width="100%" height="100%" fill="#000000" fill-opacity="1"/><svg viewBox="-138.9918 84.8396 502.6082 142" width="333" height="94.08123464758434" x="83.5px" y="202.9594px" xmlns="http://www.w3.org/2000/svg" xmlns:xlink="http://www.w3.org/1999/xlink" preserveAspectRatio="none"><defs></defs><style>.aRWrrEA-PR0filter-floo {flood-color:#E9B0D6;flood-opacity:0.5;}.atUk6sjh6M0filter-floo {flood-color:#FFFFFF;flood-opacity:0.89;}.companyName {fill:#FFFFFF;fill-opacity:1;}.icon3 {fill:#F55139;fill-opacity:1;}.icon3-str {stroke:#F55139;stroke-opacity:1;}.shape-floo {flood-color:#2525CE;flood-opacity:1;}.text {fill:#F3F3F3;fill-opacity:1;}</style><defs>
      <filter
        x="-138.9918"
        y="84.8396"
        width="502.6082"
        height="142"
        id="ikYEXSHZT"
        filterUnits="userSpaceOnUse"
        primitiveUnits="userSpaceOnUse"
        color-interpolation-filters="sRGB">
        
    <feGaussianBlur in="SourceGraphic" stdDeviation="7"/>
    <feOffset dx="3.860375059564381" dy="3.860375059564381" result="a3Sn4dFkxAHm"/>
    <feFlood flood-color="#2525CE" flood-opacity="1" in="a3Sn4dFkxAHm" />
    <feComposite  in2="a3Sn4dFkxAHm" operator="in" result="YNysygRPBDL"/><feMerge result="CbrVQpI6Fh8"><feMergeNode in="YNysygRPBDL" /><feMergeNode in="SourceGraphic" /></feMerge><feGaussianBlur  result="HLNJ3cyEQaw" stdDeviation="10" />
      </filter>
      <filter
        x="-102.1657"
        y="119.9792"
        width="421.2352"
        height="64"
        id="tUk6sjh6M"
        filterUnits="userSpaceOnUse"
        primitiveUnits="userSpaceOnUse"
        color-interpolation-filters="sRGB">
        
    <feGaussianBlur in="SourceGraphic" stdDeviation="4"/>
    <feOffset dx="0" dy="0" result="xPwaSpMSe20"/>
    <feFlood flood-color="#FFFFFF" flood-opacity="0.89" in="xPwaSpMSe20" />
    <feComposite  in2="xPwaSpMSe20" operator="in" result="a7HvMc9ieOAN"/><feMerge result="IksvdSF57se"><feMergeNode in="a7HvMc9ieOAN" /><feMergeNode in="SourceGraphic" /></feMerge>
      </filter></defs><g opacity="1" transform="rotate(0 -13.219 195.9792)">
<svg width="243.3419" height="16.8" x="-13.219" y="195.9792" version="1.1" preserveAspectRatio="none" viewBox="3.24 -28 410.16 28.32">
  <g transform="matrix(1 0 0 1 0 0)" class="text"><path id="id-6izo4zJp20" d="M23.08-26.48L26.08-26.48L26.08 0L22.60 0L6.24-22.36L6.24 0L3.24 0L3.24-26.48L6.72-26.48L23.08-4.20L23.08-26.48Z M35.72 0L35.72-20L38.72-20L38.72 0L35.72 0ZM35.60-27.28L38.84-27.28L38.84-23.36L35.60-23.36L35.60-27.28Z M53.08 0L50.08 0L50.08-17.36L46.00-17.36L46.00-20L50.08-20L50.08-27.16L53.08-27.16L53.08-20L57.68-20L57.68-17.36L53.08-17.36L53.08 0Z M81.80-20L73.76-12.12L82.40 0L78.72 0L71.72-10.04L67.96-6.32L67.96 0L64.96 0L64.96-28L67.96-28L67.96-10.08L77.60-20L81.80-20Z M105.88-20L97.84-12.12L106.48 0L102.80 0L95.80-10.04L92.04-6.32L92.04 0L89.04 0L89.04-28L92.04-28L92.04-10.08L101.68-20L105.88-20Z M123.48-20.32L123.68-20.32L123.68-17.32L123.32-17.32Q120.08-17.32 118.04-14.72L118.04-14.72Q116.12-12.24 116.12-8.80L116.12-8.80L116.12 0L113.12 0L113.12-20L116.12-20L116.12-15.08Q117.08-18.20 120.28-19.68L120.28-19.68Q121.60-20.32 123.48-20.32L123.48-20.32Z M155.88-2.60L155.88-2.60Q158.72-2.60 160.86-4.04Q163-5.48 164.04-7.92L164.04-7.92L167.20-7.92Q165.88-4.16 162.84-2L162.84-2Q159.60 0.32 155.20 0.32L155.20 0.32Q149.40 0.32 145.80-3.64L145.80-3.64Q142.40-7.44 142.40-13.24Q142.40-19.04 145.80-22.84L145.80-22.84Q149.40-26.80 155.20-26.80L155.20-26.80Q159.60-26.80 162.84-24.48L162.84-24.48Q165.88-22.32 167.20-18.56L167.20-18.56L164.04-18.56Q163-21 160.86-22.44Q158.72-23.88 155.88-23.88Q153.04-23.88 151.16-23.06Q149.28-22.24 148-20.80L148-20.80Q145.40-17.88 145.40-13.24L145.40-13.24Q145.40-8.60 148-5.68L148-5.68Q150.72-2.60 155.88-2.60Z M192.48 0L189.48 0L189.48-3.12Q188.40-1.68 186.84-0.68Q185.28 0.32 183.28 0.32Q181.28 0.32 179.84-0.24Q178.40-0.80 177.32-1.92L177.32-1.92Q174.84-4.36 174.84-8.36L174.84-8.36L174.84-20L177.84-20L177.84-8.44Q177.84-5.68 179.40-4.04Q180.96-2.40 183.44-2.40L183.44-2.40Q185.96-2.40 187.72-4.08L187.72-4.08Q189.48-5.80 189.48-8.48L189.48-8.48L189.48-20L192.48-20L192.48 0Z M204.68-28L204.68 0L201.68 0L201.68-28L204.68-28Z M219.04 0L216.04 0L216.04-17.36L211.96-17.36L211.96-20L216.04-20L216.04-27.16L219.04-27.16L219.04-20L223.64-20L223.64-17.36L219.04-17.36L219.04 0Z M248.36 0L245.36 0L245.36-3.12Q244.28-1.68 242.72-0.68Q241.16 0.32 239.16 0.32Q237.16 0.32 235.72-0.24Q234.28-0.80 233.20-1.92L233.20-1.92Q230.72-4.36 230.72-8.36L230.72-8.36L230.72-20L233.72-20L233.72-8.44Q233.72-5.68 235.28-4.04Q236.84-2.40 239.32-2.40L239.32-2.40Q241.84-2.40 243.60-4.08L243.60-4.08Q245.36-5.80 245.36-8.48L245.36-8.48L245.36-20L248.36-20L248.36 0Z M267.92-20.32L268.12-20.32L268.12-17.32L267.76-17.32Q264.52-17.32 262.48-14.72L262.48-14.72Q260.56-12.24 260.56-8.80L260.56-8.80L260.56 0L257.56 0L257.56-20L260.56-20L260.56-15.08Q261.52-18.20 264.72-19.68L264.72-19.68Q266.04-20.32 267.92-20.32L267.92-20.32Z M290.44 0L290.44-3.20Q288.04 0.32 283.28 0.32L283.28 0.32Q278.96 0.32 276.24-2.68L276.24-2.68Q273.60-5.64 273.60-10L273.60-10Q273.60-14.36 276.24-17.32L276.24-17.32Q278.96-20.32 283.48-20.32Q288-20.32 290.44-16.76L290.44-16.76L290.44-20L293.44-20L293.44 0L290.44 0ZM283.68-2.40L283.68-2.40Q286.92-2.40 288.80-4.64L288.80-4.64Q290.60-6.76 290.60-10L290.60-10Q290.60-13.24 288.80-15.36L288.80-15.36Q286.92-17.60 283.68-17.60L283.68-17.60Q280.48-17.60 278.48-15.36L278.48-15.36Q276.60-13.24 276.60-10L276.60-10Q276.60-6.76 278.48-4.64L278.48-4.64Q280.48-2.40 283.68-2.40Z M305.64-28L305.64 0L302.64 0L302.64-28L305.64-28Z M347.12-23.60L331-23.60L331-14.40L345.36-14.40L345.36-11.48L331-11.48L331 0L328 0L328-26.48L347.12-26.48L347.12-23.60Z M363.00-2.40L363.00-2.40Q367.04-2.40 368.80-5.76L368.80-5.76L372.08-5.76Q371.04-3.04 368.78-1.36Q366.52 0.32 362.96 0.32L362.96 0.32Q358.44 0.32 355.60-2.68L355.60-2.68Q352.84-5.60 352.84-10L352.84-10Q352.84-14.44 355.48-17.32L355.48-17.32Q358.28-20.32 362.76-20.32L362.76-20.32Q367.24-20.32 370.04-17.32L370.04-17.32Q372.68-14.44 372.68-10L372.68-10L372.68-8.80L355.92-8.80Q356.24-6.04 358.12-4.24L358.12-4.24Q360.04-2.40 363.00-2.40ZM362.76-17.60L362.76-17.60Q360.00-17.60 358.12-15.88L358.12-15.88Q356.36-14.24 355.96-11.60L355.96-11.60L369.56-11.60Q369.16-14.24 367.40-15.88L367.40-15.88Q365.52-17.60 362.76-17.60Z M395.16-14.64L392.12-14.64Q391.72-17.76 387.10-17.76Q382.48-17.76 382.48-14.88L382.48-14.88Q382.48-13.68 383.46-13.06Q384.44-12.44 385.92-12.04Q387.40-11.64 389.14-11.30Q390.88-10.96 392.36-10.34Q393.84-9.72 394.82-8.64Q395.80-7.56 395.80-5.68L395.80-5.68Q395.80-2.76 393.60-1.22Q391.40 0.32 387.64 0.32L387.64 0.32Q383.64 0.32 381.28-1.68L381.28-1.68Q379.12-3.44 378.96-6.28L378.96-6.28L382.08-6.28Q382.36-3.52 385.20-2.56L385.20-2.56Q386.24-2.24 387.26-2.24Q388.28-2.24 389.16-2.36Q390.04-2.48 390.88-2.80L390.88-2.80Q392.80-3.56 392.80-5.40L392.80-5.40Q392.80-6.64 391.82-7.30Q390.84-7.96 389.36-8.38Q387.88-8.80 386.14-9.14Q384.40-9.48 382.92-10.08Q381.44-10.68 380.46-11.72Q379.48-12.76 379.48-14.60L379.48-14.60Q379.48-17.32 381.46-18.82Q383.44-20.32 387.32-20.32L387.32-20.32Q391-20.32 393.12-18.56L393.12-18.56Q394.88-17.08 395.16-14.64L395.16-14.64Z M408.80 0L405.80 0L405.80-17.36L401.72-17.36L401.72-20L405.80-20L405.80-27.16L408.80-27.16L408.80-20L413.40-20L413.40-17.36L408.80-17.36L408.80 0Z"/></g>
</svg>
</g><g filter="url(#ikYEXSHZT)"><g opacity="1" transform="rotate(0 -91.8522 131.9792)">
<svg width="400.6082" height="40" x="-91.8522" y="131.9792" version="1.1" preserveAspectRatio="none" viewBox="2.04 -28.48 290.03999999999996 28.96">
  <g transform="matrix(1 0 0 1 0 0)" class="icon3"><path id="id-BEGfasMba10" d="M15.88 0.48Q11.68 0.48 8.54-1.04Q5.40-2.56 3.72-5.32Q2.04-8.08 2.04-11.68L2.04-11.68Q2.04-16.44 4.22-20.26Q6.40-24.08 10.36-26.28Q14.32-28.48 19.44-28.48L19.44-28.48Q23.20-28.48 26.08-27.20Q28.96-25.92 30.44-23.52L30.44-23.52L25.76-19.68Q23.52-22.96 19-22.96L19-22.96Q15.92-22.96 13.56-21.52Q11.20-20.08 9.90-17.60Q8.60-15.12 8.60-12.08L8.60-12.08Q8.60-8.84 10.66-6.94Q12.72-5.04 16.44-5.04L16.44-5.04Q20.88-5.04 23.88-8.28L23.88-8.28L27.72-4.36Q23.56 0.48 15.88 0.48L15.88 0.48Z M44.40 0.48Q40.20 0.48 37.12-1.04Q34.04-2.56 32.40-5.32Q30.76-8.08 30.76-11.68L30.76-11.68Q30.76-16.44 32.94-20.26Q35.12-24.08 39.06-26.28Q43-28.48 48.08-28.48L48.08-28.48Q52.28-28.48 55.36-26.96Q58.44-25.44 60.08-22.68Q61.72-19.92 61.72-16.32L61.72-16.32Q61.72-11.56 59.54-7.74Q57.36-3.92 53.42-1.72Q49.48 0.48 44.40 0.48L44.40 0.48ZM44.96-5.04Q48.04-5.04 50.36-6.52Q52.68-8 53.92-10.48Q55.16-12.96 55.16-15.96L55.16-15.96Q55.16-19.16 53.16-21.06Q51.16-22.96 47.52-22.96L47.52-22.96Q44.44-22.96 42.12-21.48Q39.80-20 38.56-17.52Q37.32-15.04 37.32-12.04L37.32-12.04Q37.32-8.84 39.32-6.94Q41.32-5.04 44.96-5.04L44.96-5.04Z M88.52-28L94.92-28L89.32 0L84 0L73.56-17.52L70.04 0L63.64 0L69.24-28L74.60-28L85.04-10.44L88.52-28Z M121.64-22.80L107-22.80L105.52-15.40L118.52-15.40L117.44-10.20L104.52-10.20L102.48 0L95.96 0L101.56-28L122.72-28L121.64-22.80Z M121.52 0L127.12-28L133.64-28L129.08-5.28L143.12-5.28L142.04 0L121.52 0Z M158.52 0.48Q153.24 0.48 150.24-2.14Q147.24-4.76 147.24-9.32L147.24-9.32Q147.24-10.64 147.56-12.32L147.56-12.32L150.68-28L157.20-28L154.08-12.44Q153.84-11.12 153.84-10.08L153.84-10.08Q153.84-7.56 155.22-6.30Q156.60-5.04 159.24-5.04L159.24-5.04Q162.20-5.04 163.96-6.80Q165.72-8.56 166.52-12.44L166.52-12.44L169.64-28L176-28L172.84-12.04Q170.28 0.48 158.52 0.48L158.52 0.48Z M202.52-22.80L187.84-22.80L186.64-16.72L199.64-16.72L198.64-11.68L185.60-11.68L184.32-5.20L199.60-5.20L198.52 0L176.84 0L182.44-28L203.60-28L202.52-22.80Z M228.56-28L234.96-28L229.36 0L224.04 0L213.60-17.52L210.08 0L203.68 0L209.28-28L214.64-28L225.08-10.44L228.56-28Z M250.72 0.48Q246.52 0.48 243.38-1.04Q240.24-2.56 238.56-5.32Q236.88-8.08 236.88-11.68L236.88-11.68Q236.88-16.44 239.06-20.26Q241.24-24.08 245.20-26.28Q249.16-28.48 254.28-28.48L254.28-28.48Q258.04-28.48 260.92-27.20Q263.80-25.92 265.28-23.52L265.28-23.52L260.60-19.68Q258.36-22.96 253.84-22.96L253.84-22.96Q250.76-22.96 248.40-21.52Q246.04-20.08 244.74-17.60Q243.44-15.12 243.44-12.08L243.44-12.08Q243.44-8.84 245.50-6.94Q247.56-5.04 251.28-5.04L251.28-5.04Q255.72-5.04 258.72-8.28L258.72-8.28L262.56-4.36Q258.40 0.48 250.72 0.48L250.72 0.48Z M291-22.80L276.32-22.80L275.12-16.72L288.12-16.72L287.12-11.68L274.08-11.68L272.80-5.20L288.08-5.20L287 0L265.32 0L270.92-28L292.08-28L291-22.80Z"/></g>
</svg>
</g></g><g filter="url(#tUk6sjh6M)"><g opacity="1" transform="rotate(0 -90.1657 131.9792)">
<svg width="397.2352" height="40" x="-90.1657" y="131.9792" version="1.1" preserveAspectRatio="none" viewBox="1.56 -28.48 287.6 28.96">
  <g transform="matrix(1 0 0 1 0 0)" class="companyName"><path id="id-D6z1nYkh10" d="M16.72 0.48Q12.44 0.48 8.98-1.38Q5.52-3.24 3.54-6.54Q1.56-9.84 1.56-14L1.56-14Q1.56-18.16 3.54-21.46Q5.52-24.76 8.98-26.62Q12.44-28.48 16.76-28.48L16.76-28.48Q20.40-28.48 23.34-27.20Q26.28-25.92 28.28-23.52L28.28-23.52L24.12-19.68Q21.28-22.96 17.08-22.96L17.08-22.96Q14.48-22.96 12.44-21.82Q10.40-20.68 9.26-18.64Q8.12-16.60 8.12-14L8.12-14Q8.12-11.40 9.26-9.36Q10.40-7.32 12.44-6.18Q14.48-5.04 17.08-5.04L17.08-5.04Q21.28-5.04 24.12-8.36L24.12-8.36L28.28-4.52Q26.28-2.08 23.32-0.80Q20.36 0.48 16.72 0.48L16.72 0.48Z M45.60 0.48Q41.24 0.48 37.74-1.40Q34.24-3.28 32.26-6.58Q30.28-9.88 30.28-14L30.28-14Q30.28-18.12 32.26-21.42Q34.24-24.72 37.74-26.60Q41.24-28.48 45.60-28.48L45.60-28.48Q49.96-28.48 53.44-26.60Q56.92-24.72 58.92-21.42Q60.92-18.12 60.92-14L60.92-14Q60.92-9.88 58.92-6.58Q56.92-3.28 53.44-1.40Q49.96 0.48 45.60 0.48L45.60 0.48ZM45.60-5.04Q48.08-5.04 50.08-6.18Q52.08-7.32 53.22-9.36Q54.36-11.40 54.36-14L54.36-14Q54.36-16.60 53.22-18.64Q52.08-20.68 50.08-21.82Q48.08-22.96 45.60-22.96L45.60-22.96Q43.12-22.96 41.12-21.82Q39.12-20.68 37.98-18.64Q36.84-16.60 36.84-14L36.84-14Q36.84-11.40 37.98-9.36Q39.12-7.32 41.12-6.18Q43.12-5.04 45.60-5.04L45.60-5.04Z M85.08-28L91.48-28L91.48 0L86.16 0L72.20-17L72.20 0L65.80 0L65.80-28L71.16-28L85.08-11L85.08-28Z M119.28-22.80L104.60-22.80L104.60-15.40L117.56-15.40L117.56-10.20L104.60-10.20L104.60 0L98.12 0L98.12-28L119.28-28L119.28-22.80Z M123.68 0L123.68-28L130.16-28L130.16-5.28L144.20-5.28L144.20 0L123.68 0Z M159.92 0.48Q153.92 0.48 150.58-2.84Q147.24-6.16 147.24-12.32L147.24-12.32L147.24-28L153.72-28L153.72-12.56Q153.72-5.04 159.96-5.04L159.96-5.04Q163-5.04 164.60-6.86Q166.20-8.68 166.20-12.56L166.20-12.56L166.20-28L172.60-28L172.60-12.32Q172.60-6.16 169.26-2.84Q165.92 0.48 159.92 0.48L159.92 0.48Z M185.44-5.20L200.68-5.20L200.68 0L179 0L179-28L200.16-28L200.16-22.80L185.44-22.80L185.44-16.72L198.44-16.72L198.44-11.68L185.44-11.68L185.44-5.20Z M225.12-28L231.52-28L231.52 0L226.20 0L212.24-17L212.24 0L205.84 0L205.84-28L211.20-28L225.12-11L225.12-28Z M251.56 0.48Q247.28 0.48 243.82-1.38Q240.36-3.24 238.38-6.54Q236.40-9.84 236.40-14L236.40-14Q236.40-18.16 238.38-21.46Q240.36-24.76 243.82-26.62Q247.28-28.48 251.60-28.48L251.60-28.48Q255.24-28.48 258.18-27.20Q261.12-25.92 263.12-23.52L263.12-23.52L258.96-19.68Q256.12-22.96 251.92-22.96L251.92-22.96Q249.32-22.96 247.28-21.82Q245.24-20.68 244.10-18.64Q242.96-16.60 242.96-14L242.96-14Q242.96-11.40 244.10-9.36Q245.24-7.32 247.28-6.18Q249.32-5.04 251.92-5.04L251.92-5.04Q256.12-5.04 258.96-8.36L258.96-8.36L263.12-4.52Q261.12-2.08 258.16-0.80Q255.20 0.48 251.56 0.48L251.56 0.48Z M273.92-5.20L289.16-5.20L289.16 0L267.48 0L267.48-28L288.64-28L288.64-22.80L273.92-22.80L273.92-16.72L286.92-16.72L286.92-11.68L273.92-11.68L273.92-5.20Z"/></g>
</svg>
</g></g></svg></svg>