<svg version="1.1" preserveAspectRatio="none" xmlns="http://www.w3.org/2000/svg" width="500" height="500" viewBox="0 0 500 500"><rect width="100%" height="100%" fill="#101F37" fill-opacity="1"/><svg viewBox="69.8127 175.525 372.8278 282.1311" width="333" height="251.99208937745522" x="83.5px" y="124.004px" xmlns="http://www.w3.org/2000/svg" xmlns:xlink="http://www.w3.org/1999/xlink" preserveAspectRatio="none"><defs></defs><style>.companyName {fill:#E9B0D6;fill-opacity:1;}.icon1 {fill:#929292;fill-opacity:1;}.icon2 {fill:#E9B0D6;fill-opacity:1;}.icon3 {fill:#E5E5E5;fill-opacity:1;}.icon3-str {stroke:#E5E5E5;stroke-opacity:1;}.text {fill:#E9B0D6;fill-opacity:1;}</style><g opacity="1" transform="rotate(0 141.2636 436.6561)">
<svg width="229.926" height="21" x="141.2636" y="436.6561" version="1.1" preserveAspectRatio="none" viewBox="2.6 -28 393.23999999999995 35.92">
  <g transform="matrix(1 0 0 1 0 0)" class="text"><path id="id-6izo4zJp18" d="M5.60-20L5.60-16.96Q7.60-20.32 11.68-20.32L11.68-20.32Q13.68-20.32 15.38-19.26Q17.08-18.20 18.04-16.28L18.04-16.28Q19.40-18.80 22.28-19.88L22.28-19.88Q23.44-20.32 24.90-20.32Q26.36-20.32 27.70-19.74Q29.04-19.16 30.08-18.08L30.08-18.08Q32.32-15.68 32.32-12.08L32.32-12.08L32.32 0L29.32 0L29.32-12Q29.32-14.48 27.92-16.08L27.92-16.08Q26.52-17.60 24.36-17.60L24.36-17.60Q22.08-17.60 20.56-16.12L20.56-16.12Q18.96-14.60 18.96-11.96L18.96-11.96L18.96 0L15.96 0L15.96-12Q15.96-14.48 14.56-16.08L14.56-16.08Q13.16-17.60 11-17.60L11-17.60Q8.72-17.60 7.20-16.12L7.20-16.12Q5.60-14.60 5.60-11.96L5.60-11.96L5.60 0L2.60 0L2.60-20L5.60-20Z M50-20.32L50-20.32Q54.48-20.32 57.28-17.32L57.28-17.32Q59.92-14.44 59.92-10L59.92-10Q59.92-5.56 57.28-2.68L57.28-2.68Q54.48 0.32 50 0.32L50 0.32Q45.52 0.32 42.72-2.68L42.72-2.68Q40.08-5.56 40.08-10L40.08-10Q40.08-14.44 42.72-17.32L42.72-17.32Q45.52-20.32 50-20.32ZM50-2.40L50-2.40Q53.24-2.40 55.12-4.64L55.12-4.64Q56.92-6.76 56.92-10L56.92-10Q56.92-13.24 55.12-15.36L55.12-15.36Q53.24-17.60 50-17.60L50-17.60Q46.76-17.60 44.88-15.36L44.88-15.36Q43.08-13.24 43.08-10L43.08-10Q43.08-6.76 44.88-4.64L44.88-4.64Q46.76-2.40 50-2.40Z M67.88-20L70.88-20L70.88-16.88Q71.96-18.32 73.52-19.32Q75.08-20.32 77.08-20.32Q79.08-20.32 80.52-19.76Q81.96-19.20 83.04-18.08L83.04-18.08Q85.52-15.64 85.52-11.64L85.52-11.64L85.52 0L82.52 0L82.52-11.56Q82.52-14.32 80.96-15.96Q79.40-17.60 76.92-17.60L76.92-17.60Q74.40-17.60 72.64-15.92L72.64-15.92Q70.88-14.20 70.88-11.52L70.88-11.52L70.88 0L67.88 0L67.88-20Z M94.52 0L94.52-20L97.52-20L97.52 0L94.52 0ZM94.40-27.28L97.64-27.28L97.64-23.36L94.40-23.36L94.40-27.28Z M111.88 0L108.88 0L108.88-17.36L104.80-17.36L104.80-20L108.88-20L108.88-27.16L111.88-27.16L111.88-20L116.48-20L116.48-17.36L111.88-17.36L111.88 0Z M132.04-20.32L132.04-20.32Q136.52-20.32 139.32-17.32L139.32-17.32Q141.96-14.44 141.96-10L141.96-10Q141.96-5.56 139.32-2.68L139.32-2.68Q136.52 0.32 132.04 0.32L132.04 0.32Q127.56 0.32 124.76-2.68L124.76-2.68Q122.12-5.56 122.12-10L122.12-10Q122.12-14.44 124.76-17.32L124.76-17.32Q127.56-20.32 132.04-20.32ZM132.04-2.40L132.04-2.40Q135.28-2.40 137.16-4.64L137.16-4.64Q138.96-6.76 138.96-10L138.96-10Q138.96-13.24 137.16-15.36L137.16-15.36Q135.28-17.60 132.04-17.60L132.04-17.60Q128.80-17.60 126.92-15.36L126.92-15.36Q125.12-13.24 125.12-10L125.12-10Q125.12-6.76 126.92-4.64L126.92-4.64Q128.80-2.40 132.04-2.40Z M160.28-20.32L160.48-20.32L160.48-17.32L160.12-17.32Q156.88-17.32 154.84-14.72L154.84-14.72Q152.92-12.24 152.92-8.80L152.92-8.80L152.92 0L149.92 0L149.92-20L152.92-20L152.92-15.08Q153.88-18.20 157.08-19.68L157.08-19.68Q158.40-20.32 160.28-20.32L160.28-20.32Z M197.40-20L185.56 7.92L182.32 7.92L185.96-0.28L177.80-20L181.12-20L187.56-3.60L194.12-20L197.40-20Z M212.48-20.32L212.48-20.32Q216.96-20.32 219.76-17.32L219.76-17.32Q222.40-14.44 222.40-10L222.40-10Q222.40-5.56 219.76-2.68L219.76-2.68Q216.96 0.32 212.48 0.32L212.48 0.32Q208.00 0.32 205.20-2.68L205.20-2.68Q202.56-5.56 202.56-10L202.56-10Q202.56-14.44 205.20-17.32L205.20-17.32Q208.00-20.32 212.48-20.32ZM212.48-2.40L212.48-2.40Q215.72-2.40 217.60-4.64L217.60-4.64Q219.40-6.76 219.40-10L219.40-10Q219.40-13.24 217.60-15.36L217.60-15.36Q215.72-17.60 212.48-17.60L212.48-17.60Q209.24-17.60 207.36-15.36L207.36-15.36Q205.56-13.24 205.56-10L205.56-10Q205.56-6.76 207.36-4.64L207.36-4.64Q209.24-2.40 212.48-2.40Z M247.80 0L244.80 0L244.80-3.12Q243.72-1.68 242.16-0.68Q240.60 0.32 238.60 0.32Q236.60 0.32 235.16-0.24Q233.72-0.80 232.64-1.92L232.64-1.92Q230.16-4.36 230.16-8.36L230.16-8.36L230.16-20L233.16-20L233.16-8.44Q233.16-5.68 234.72-4.04Q236.28-2.40 238.76-2.40L238.76-2.40Q241.28-2.40 243.04-4.08L243.04-4.08Q244.80-5.80 244.80-8.48L244.80-8.48L244.80-20L247.80-20L247.80 0Z M267.36-20.32L267.56-20.32L267.56-17.32L267.20-17.32Q263.96-17.32 261.92-14.72L261.92-14.72Q260.00-12.24 260.00-8.80L260.00-8.80L260.00 0L257.00 0L257.00-20L260.00-20L260.00-15.08Q260.96-18.20 264.16-19.68L264.16-19.68Q265.48-20.32 267.36-20.32L267.36-20.32Z M292.48 0L289.48 0L289.48-17.36L285.40-17.36L285.40-20L289.48-20L289.48-27.16L292.48-27.16L292.48-20L297.08-20L297.08-17.36L292.48-17.36L292.48 0Z M314.72-20.32L314.92-20.32L314.92-17.32L314.56-17.32Q311.32-17.32 309.28-14.72L309.28-14.72Q307.36-12.24 307.36-8.80L307.36-8.80L307.36 0L304.36 0L304.36-20L307.36-20L307.36-15.08Q308.32-18.20 311.52-19.68L311.52-19.68Q312.84-20.32 314.72-20.32L314.72-20.32Z M337.24 0L337.24-3.20Q334.84 0.32 330.08 0.32L330.08 0.32Q325.76 0.32 323.04-2.68L323.04-2.68Q320.40-5.64 320.40-10L320.40-10Q320.40-14.36 323.04-17.32L323.04-17.32Q325.76-20.32 330.28-20.32Q334.80-20.32 337.24-16.76L337.24-16.76L337.24-20L340.24-20L340.24 0L337.24 0ZM330.48-2.40L330.48-2.40Q333.72-2.40 335.60-4.64L335.60-4.64Q337.40-6.76 337.40-10L337.40-10Q337.40-13.24 335.60-15.36L335.60-15.36Q333.72-17.60 330.48-17.60L330.48-17.60Q327.28-17.60 325.28-15.36L325.28-15.36Q323.40-13.24 323.40-10L323.40-10Q323.40-6.76 325.28-4.64L325.28-4.64Q327.28-2.40 330.48-2.40Z M365.04 0L365.04-3.20Q362.64 0.32 357.88 0.32L357.88 0.32Q353.56 0.32 350.84-2.68L350.84-2.68Q348.20-5.64 348.20-10L348.20-10Q348.20-14.36 350.84-17.32L350.84-17.32Q353.56-20.32 358.08-20.32Q362.60-20.32 365.04-16.76L365.04-16.76L365.04-28L368.04-28L368.04 0L365.04 0ZM358.28-2.40L358.28-2.40Q361.52-2.40 363.40-4.64L363.40-4.64Q365.20-6.76 365.20-10L365.20-10Q365.20-13.24 363.40-15.36L363.40-15.36Q361.52-17.60 358.28-17.60L358.28-17.60Q355.08-17.60 353.08-15.36L353.08-15.36Q351.20-13.24 351.20-10L351.20-10Q351.20-6.76 353.08-4.64L353.08-4.64Q355.08-2.40 358.28-2.40Z M386.16-2.40L386.16-2.40Q390.20-2.40 391.96-5.76L391.96-5.76L395.24-5.76Q394.20-3.04 391.94-1.36Q389.68 0.32 386.12 0.32L386.12 0.32Q381.60 0.32 378.76-2.68L378.76-2.68Q376.00-5.60 376.00-10L376.00-10Q376.00-14.44 378.64-17.32L378.64-17.32Q381.44-20.32 385.92-20.32L385.92-20.32Q390.40-20.32 393.20-17.32L393.20-17.32Q395.84-14.44 395.84-10L395.84-10L395.84-8.80L379.08-8.80Q379.40-6.04 381.28-4.24L381.28-4.24Q383.20-2.40 386.16-2.40ZM385.92-17.60L385.92-17.60Q383.16-17.60 381.28-15.88L381.28-15.88Q379.52-14.24 379.12-11.60L379.12-11.60L392.72-11.60Q392.32-14.24 390.56-15.88L390.56-15.88Q388.68-17.60 385.92-17.60Z"/></g>
</svg>
</g><g opacity="1" transform="rotate(0 69.8127 354.6561)">
<svg width="372.8278" height="60" x="69.8127" y="354.6561" version="1.1" preserveAspectRatio="none" viewBox="2.5195 -32.3828 265.543 42.7344">
  <g transform="matrix(1 0 0 1 0 0)" class="companyName"><path id="id-D6z1nYkh8" d="M2.52-11.60L2.52-11.60Q2.52-13.95 3.48-16.08Q4.43-18.22 6.23-19.86Q8.03-21.50 10.63-22.48Q13.24-23.46 16.56-23.46L16.56-23.46Q19.86-23.46 22.51-22.47Q25.16-21.48 27.00-19.77Q28.85-18.05 29.83-15.72Q30.82-13.40 30.82-10.74L30.82-10.74Q30.82-10.41 30.81-10.03Q30.80-9.65 30.76-9.34L30.76-9.34L8.96-9.34Q9.34-8.30 10.17-7.44Q11.00-6.58 12.25-5.96Q13.50-5.33 15.14-4.99Q16.78-4.65 18.77-4.65L18.77-4.65Q20.76-4.65 22.73-5.07Q24.71-5.49 26.50-6.13L26.50-6.13L28.46-1.72Q27.32-1.19 26.16-0.79Q25-0.39 23.74-0.13Q22.48 0.14 21.10 0.27Q19.73 0.41 18.20 0.41L18.20 0.41Q14.32 0.41 11.39-0.53Q8.46-1.46 6.48-3.09Q4.51-4.71 3.52-6.89Q2.52-9.08 2.52-11.60ZM8.96-13.85L24.69-13.85Q24.38-14.80 23.72-15.63Q23.07-16.46 22.09-17.08Q21.11-17.70 19.82-18.05Q18.54-18.40 16.99-18.40L16.99-18.40Q15.35-18.40 14.00-18.03Q12.66-17.66 11.64-17.03Q10.63-16.41 9.95-15.59Q9.28-14.77 8.96-13.85L8.96-13.85Z M35.83 0L45.01-11.52L35.48-23.07L42.86-23.07L48.64-16.04L54.13-23.07L61.34-23.07L52.37-11.54L61.90 0L54.52 0L48.56-7.21L43.04 0L35.83 0Z M66.21-11.46L66.21-11.46Q66.21-14.00 67.13-16.20Q68.06-18.40 69.85-20.01Q71.64-21.62 74.22-22.54Q76.81-23.46 80.13-23.46L80.13-23.46Q81.58-23.46 83.04-23.28Q84.51-23.11 85.87-22.78Q87.22-22.46 88.41-22.02Q89.61-21.58 90.48-21.05L90.48-21.05L87.81-16.70Q85.91-17.58 84.22-17.99Q82.54-18.40 80.80-18.40L80.80-18.40Q78.80-18.40 77.22-17.88Q75.64-17.36 74.54-16.44Q73.43-15.51 72.86-14.25Q72.28-12.99 72.28-11.50L72.28-11.50Q72.28-10.02 72.90-8.76Q73.51-7.50 74.63-6.59Q75.76-5.68 77.35-5.17Q78.94-4.65 80.89-4.65L80.89-4.65Q83.04-4.65 84.95-5.25Q86.85-5.86 88.49-6.88L88.49-6.88L91.17-2.52Q90.13-1.89 88.92-1.36Q87.71-0.82 86.33-0.43Q84.96-0.04 83.44 0.19Q81.93 0.41 80.31 0.41L80.31 0.41Q77.01 0.41 74.39-0.49Q71.77-1.39 69.96-2.98Q68.14-4.57 67.17-6.74Q66.21-8.91 66.21-11.46Z M99.40 0L99.40-32.38L105.18-32.38L105.18-21.29Q107.00-22.29 109.23-22.87Q111.47-23.46 113.93-23.46L113.93-23.46Q116.78-23.46 119.06-22.62Q121.33-21.78 122.91-20.21Q124.50-18.63 125.35-16.39Q126.20-14.14 126.20-11.33L126.20-11.33L126.20 0L120.43 0L120.43-11.09Q120.43-12.73 119.91-14.09Q119.38-15.45 118.36-16.43Q117.35-17.40 115.89-17.94Q114.44-18.48 112.60-18.48L112.60-18.48Q110.39-18.48 108.50-17.77Q106.61-17.07 105.18-16.00L105.18-16.00L105.18 0L99.40 0Z M133.57-7.27L133.57-7.27Q133.57-8.93 134.29-10.29Q135.01-11.66 136.46-12.65Q137.90-13.63 140.06-14.17Q142.22-14.71 145.09-14.71L145.09-14.71Q147.22-14.71 149.57-14.39Q151.93-14.08 154.43-13.44L154.43-13.44Q154.33-14.53 153.76-15.46Q153.20-16.39 152.19-17.06Q151.18-17.73 149.77-18.11Q148.35-18.48 146.55-18.48L146.55-18.48Q145.58-18.48 144.41-18.36Q143.23-18.24 141.98-18.01Q140.73-17.77 139.51-17.42Q138.29-17.07 137.24-16.58L137.24-16.58L135.48-21.33Q136.79-21.80 138.28-22.19Q139.78-22.58 141.34-22.86Q142.90-23.14 144.46-23.30Q146.03-23.46 147.49-23.46L147.49-23.46Q153.96-23.46 157.10-20.16Q160.25-16.86 160.25-10.04L160.25-10.04L160.25 0L154.46 0L154.46-2.17Q153.57-1.64 152.50-1.17Q151.44-0.70 150.19-0.35Q148.94 0 147.50 0.21Q146.07 0.41 144.46 0.41L144.46 0.41Q141.77 0.41 139.73-0.18Q137.69-0.76 136.32-1.80Q134.95-2.83 134.26-4.23Q133.57-5.63 133.57-7.27ZM139.66-7.46L139.66-7.46Q139.66-6.89 139.95-6.38Q140.25-5.86 140.89-5.46Q141.54-5.06 142.54-4.81Q143.55-4.57 144.97-4.57L144.97-4.57Q146.50-4.57 147.92-4.84Q149.35-5.12 150.58-5.57Q151.81-6.02 152.80-6.60Q153.80-7.19 154.46-7.81L154.46-7.81L154.46-8.83Q153.14-9.20 151.84-9.45Q150.54-9.71 149.36-9.85Q148.18-10 147.13-10.06Q146.09-10.12 145.30-10.12L145.30-10.12Q143.68-10.12 142.61-9.90Q141.54-9.69 140.87-9.33Q140.21-8.96 139.93-8.48Q139.66-7.99 139.66-7.46Z M169.88 0L169.88-23.05L175.66-23.05L175.66-21.09Q177.97-22.40 180.07-22.93Q182.17-23.46 184.18-23.46L184.18-23.46Q186.82-23.46 189.06-22.69Q191.31-21.91 192.95-20.39Q194.59-18.87 195.52-16.59Q196.45-14.32 196.45-11.33L196.45-11.33L196.45 0L190.68 0L190.68-10.39Q190.68-12.29 190.15-13.78Q189.61-15.27 188.60-16.30Q187.60-17.32 186.16-17.86Q184.73-18.40 182.95-18.40L182.95-18.40Q182.01-18.40 181.03-18.20Q180.04-18.01 179.09-17.65Q178.14-17.29 177.27-16.75Q176.39-16.21 175.66-15.53L175.66-15.53L175.66 0L169.88 0Z M207 8.79L209.15 3.91Q210.24 4.30 211.38 4.56Q212.51 4.82 213.57 4.99Q214.64 5.16 215.61 5.22Q216.59 5.29 217.35 5.29L217.35 5.29Q219.66 5.29 221.37 4.74Q223.07 4.18 224.22 3.24Q225.36 2.30 225.93 1.06Q226.49-0.18 226.49-1.56L226.49-1.56L226.49-2.56Q225.75-2.05 224.75-1.58Q223.76-1.11 222.57-0.76Q221.38-0.41 220.04-0.20Q218.70 0.02 217.27 0.02L217.27 0.02Q214.44 0.02 212.04-0.83Q209.64-1.68 207.88-3.21Q206.12-4.75 205.13-6.89Q204.15-9.04 204.15-11.66L204.15-11.66Q204.15-14.34 205.18-16.51Q206.22-18.69 208.04-20.23Q209.87-21.78 212.37-22.62Q214.87-23.46 217.80-23.46L217.80-23.46Q219.05-23.46 220.28-23.30Q221.51-23.14 222.63-22.87Q223.76-22.60 224.74-22.22Q225.73-21.84 226.49-21.39L226.49-21.39L226.49-23.05L232.27-23.05L232.27-2.64Q232.27 0.51 231.32 2.93Q230.36 5.35 228.51 7.00Q226.67 8.65 223.93 9.50Q221.20 10.35 217.66 10.35L217.66 10.35Q216.39 10.35 215.03 10.24Q213.66 10.14 212.28 9.93Q210.91 9.73 209.57 9.44Q208.23 9.16 207 8.79L207 8.79ZM210.22-11.72L210.22-11.72Q210.22-10.33 210.78-9.11Q211.34-7.89 212.37-6.98Q213.41-6.07 214.87-5.56Q216.34-5.04 218.17-5.04L218.17-5.04Q219.36-5.04 220.54-5.26Q221.73-5.49 222.81-5.90Q223.89-6.31 224.84-6.89Q225.79-7.48 226.49-8.20L226.49-8.20L226.49-15.80Q225.61-16.50 224.64-16.99Q223.66-17.48 222.64-17.79Q221.63-18.11 220.59-18.25Q219.56-18.40 218.58-18.40L218.58-18.40Q216.59-18.40 215.04-17.87Q213.48-17.34 212.42-16.44Q211.36-15.53 210.79-14.32Q210.22-13.11 210.22-11.72Z M239.76-11.60L239.76-11.60Q239.76-13.95 240.72-16.08Q241.68-18.22 243.47-19.86Q245.27-21.50 247.88-22.48Q250.48-23.46 253.80-23.46L253.80-23.46Q257.11-23.46 259.75-22.47Q262.40-21.48 264.24-19.77Q266.09-18.05 267.08-15.72Q268.06-13.40 268.06-10.74L268.06-10.74Q268.06-10.41 268.05-10.03Q268.04-9.65 268.00-9.34L268.00-9.34L246.21-9.34Q246.58-8.30 247.41-7.44Q248.24-6.58 249.49-5.96Q250.74-5.33 252.38-4.99Q254.02-4.65 256.01-4.65L256.01-4.65Q258.00-4.65 259.98-5.07Q261.95-5.49 263.75-6.13L263.75-6.13L265.70-1.72Q264.57-1.19 263.40-0.79Q262.24-0.39 260.98-0.13Q259.72 0.14 258.35 0.27Q256.97 0.41 255.45 0.41L255.45 0.41Q251.56 0.41 248.63-0.53Q245.70-1.46 243.73-3.09Q241.75-4.71 240.76-6.89Q239.76-9.08 239.76-11.60ZM246.21-13.85L261.93-13.85Q261.62-14.80 260.96-15.63Q260.31-16.46 259.33-17.08Q258.36-17.70 257.07-18.05Q255.78-18.40 254.23-18.40L254.23-18.40Q252.59-18.40 251.25-18.03Q249.90-17.66 248.88-17.03Q247.87-16.41 247.19-15.59Q246.52-14.77 246.21-13.85L246.21-13.85Z"/></g>
</svg>
</g><g opacity="1" transform="rotate(0 181.6611 175.525)">
<svg width="149.1311" height="149.1311" x="181.6611" y="175.525" version="1.1" preserveAspectRatio="none" viewBox="20 20 160 160">
  <g transform="matrix(1 0 0 1 0 0)"><g><path d="M152.069 152.895v-.467h.08V47.837h-12.385v.052H60.916v-.052H48.531v104.591h.155v.467h103.383zM60.916 60.339h78.848v80.103H60.916V60.339z" data-color="1" class="icon1"></path><path d="M20.054 97.275h.016v.007h19.46V84.831h-7.09V32.634h46.343v7.131h12.385V20.2h-.008v-.016H20v12.451h.054v64.64z" data-color="1" class="icon1"></path><path d="M167.616 20v.055h-64.295v.016h-.007v19.565h12.385v-7.129h51.917V79.1h-7.092v12.451h19.46v-.007H180V20h-12.384z" data-color="1" class="icon1"></path><path d="M179.945 100.318h-.016v-.007h-19.46v12.838h7.091v53.821h-46.343v-7.351h-12.385v20.174h.008v.016H180v-12.84h-.054l-.001-66.651z" data-color="1" class="icon1"></path><path d="M84.301 167.104H32.385V119.06h7.091v-12.84h-19.46v.007H20V180h12.385v-.056h64.294v-.018h.007v-20.173H84.301v7.351z" data-color="1" class="icon1"></path><path d="M111.178 84.279l-10.098 8.32-9.719-8.007V68.56h-12.54c.233.233.311 21.011.311 21.011l12.933 10.454-12.624 10.402v21.945h12.385v-17.587l9.249-7.476 9.636 7.788v17.587h12.385v-21.946l-13.006-10.717 13.317-10.763c-.001.001.076-20.777.309-21.011h-12.539l.001 16.032z" data-color="1" class="icon1"></path></g></g>
</svg>
</g></svg></svg>