<svg version="1.1" preserveAspectRatio="none" xmlns="http://www.w3.org/2000/svg" width="500" height="500" viewBox="0 0 500 500"><rect width="100%" height="100%" fill="#FFFFFF" fill-opacity="1"/><svg viewBox="1227.2849 1019.9542 532.3534 164.4" width="333" height="102.83619866051387" x="83.5px" y="198.5819px" xmlns="http://www.w3.org/2000/svg" xmlns:xlink="http://www.w3.org/1999/xlink" preserveAspectRatio="none"><defs></defs><style>.background {fill:#FFFFFF;fill-opacity:1;}.icon1 {fill:#0000FF;fill-opacity:1;}.icon1-str {stroke:#0000FF;stroke-opacity:1;}.icon2 {fill:#A9FF94;fill-opacity:1;}.icon3 {fill:#7AE061;fill-opacity:0.95;}.icon3-str {stroke:#7AE061;stroke-opacity:0.95;}.icon4 {fill:#64CC4B;fill-opacity:1;}.icon5 {fill:#9B9BFF;fill-opacity:1;}.icon6 {fill:#E6FFDF;fill-opacity:0.95;}.icon7 {fill:#C6C6FF;fill-opacity:1;}.icon8 {fill:#EFAFAA;fill-opacity:1;}</style><g opacity="1" transform="rotate(0 1343.2847 1019.9542)">
<svg width="416.3536" height="120" x="1343.2847" y="1019.9542" version="1.1" preserveAspectRatio="none" viewBox="0 0 416.3536 120">
  <defs><rect x="0" y="0" width="416.3536" height="120" rx="0px" ry="0px" id="id-B7crM0kCi1754240045544"></rect></defs><use class="icon1 icon3-str" style="stroke-width:0;" xlink:href="#id-B7crM0kCi1754240045544"></use>
</svg>
</g><g opacity="1" transform="rotate(0 1417.8097 1163.9542)">
<svg width="151.3039" height="20.4" x="1417.8097" y="1163.9542" version="1.1" preserveAspectRatio="none" viewBox="0.6 -30.28 283.91999999999996 38.28">
  <g transform="matrix(1 0 0 1 0 0)" class="icon1"><path id="id-6izo4zJp13" d="M11.40-26.76Q7.96-26.76 7.96-23.04L7.96-23.04L7.96-21.20L14.12-21.20L14.12-18.04L8.04-18.04L8.04 0L4.20 0L4.20-18.04L0.60-18.04L0.60-21.20L4.20-21.20L4.20-23.08Q4.20-26.24 6.04-28.08Q7.88-29.92 11.20-29.92L11.20-29.92Q12.48-29.92 13.60-29.60Q14.72-29.28 15.52-28.68L15.52-28.68L14.36-25.76Q13.04-26.76 11.40-26.76L11.40-26.76Z M22.96 0L22.96-21.20L26.80-21.20L26.80 0L22.96 0ZM24.88-25.28Q23.76-25.28 23.02-26Q22.28-26.72 22.28-27.76L22.28-27.76Q22.28-28.80 23.02-29.54Q23.76-30.28 24.88-30.28L24.88-30.28Q26-30.28 26.74-29.58Q27.48-28.88 27.48-27.84L27.48-27.84Q27.48-26.76 26.74-26.02Q26-25.28 24.88-25.28L24.88-25.28Z M47.44-21.40Q51.48-21.40 53.86-19.06Q56.24-16.72 56.24-12.20L56.24-12.20L56.24 0L52.40 0L52.40-11.76Q52.40-14.84 50.92-16.40Q49.44-17.96 46.68-17.96L46.68-17.96Q43.56-17.96 41.76-16.14Q39.96-14.32 39.96-10.92L39.96-10.92L39.96 0L36.12 0L36.12-21.20L39.80-21.20L39.80-18Q40.96-19.64 42.94-20.52Q44.92-21.40 47.44-21.40L47.44-21.40Z M81.64-29.68L85.48-29.68L85.48 0L81.80 0L81.80-3.36Q80.52-1.60 78.56-0.68Q76.60 0.24 74.24 0.24L74.24 0.24Q71.16 0.24 68.72-1.12Q66.28-2.48 64.90-4.94Q63.52-7.40 63.52-10.60L63.52-10.60Q63.52-13.80 64.90-16.24Q66.28-18.68 68.72-20.04Q71.16-21.40 74.24-21.40L74.24-21.40Q76.52-21.40 78.44-20.54Q80.36-19.68 81.64-18L81.64-18L81.64-29.68ZM74.56-3.12Q76.56-3.12 78.20-4.06Q79.84-5 80.76-6.70Q81.68-8.40 81.68-10.60L81.68-10.60Q81.68-12.80 80.76-14.50Q79.84-16.20 78.20-17.12Q76.56-18.04 74.56-18.04L74.56-18.04Q72.52-18.04 70.90-17.12Q69.28-16.20 68.34-14.50Q67.40-12.80 67.40-10.60L67.40-10.60Q67.40-8.40 68.34-6.70Q69.28-5 70.90-4.06Q72.52-3.12 74.56-3.12L74.56-3.12Z M122.52-21.20L126.28-21.20L116.00 2.12Q114.64 5.36 112.82 6.68Q111.00 8 108.44 8L108.44 8Q106.88 8 105.42 7.50Q103.96 7 103.00 6.04L103.00 6.04L104.64 3.16Q106.28 4.72 108.44 4.72L108.44 4.72Q109.84 4.72 110.78 3.98Q111.72 3.24 112.48 1.44L112.48 1.44L113.16-0.04L103.80-21.20L107.80-21.20L115.20-4.24L122.52-21.20Z M140.36 0.24Q137.20 0.24 134.68-1.16Q132.16-2.56 130.74-5.02Q129.32-7.48 129.32-10.60L129.32-10.60Q129.32-13.72 130.74-16.18Q132.16-18.64 134.68-20.02Q137.20-21.40 140.36-21.40L140.36-21.40Q143.52-21.40 146.02-20.02Q148.52-18.64 149.94-16.18Q151.36-13.72 151.36-10.60L151.36-10.60Q151.36-7.48 149.94-5.02Q148.52-2.56 146.02-1.16Q143.52 0.24 140.36 0.24L140.36 0.24ZM140.36-3.12Q142.40-3.12 144.02-4.06Q145.64-5 146.56-6.70Q147.48-8.40 147.48-10.60L147.48-10.60Q147.48-12.80 146.56-14.50Q145.64-16.20 144.02-17.12Q142.40-18.04 140.36-18.04L140.36-18.04Q138.32-18.04 136.70-17.12Q135.08-16.20 134.14-14.50Q133.20-12.80 133.20-10.60L133.20-10.60Q133.20-8.40 134.14-6.70Q135.08-5 136.70-4.06Q138.32-3.12 140.36-3.12L140.36-3.12Z M174.60-21.20L178.44-21.20L178.44 0L174.80 0L174.80-3.20Q173.64-1.56 171.74-0.66Q169.84 0.24 167.60 0.24L167.60 0.24Q163.36 0.24 160.92-2.10Q158.48-4.44 158.48-9L158.48-9L158.48-21.20L162.32-21.20L162.32-9.44Q162.32-6.36 163.80-4.78Q165.28-3.20 168.04-3.20L168.04-3.20Q171.08-3.20 172.84-5.04Q174.60-6.88 174.60-10.24L174.60-10.24L174.60-21.20Z M191.44-17.64Q192.44-19.48 194.40-20.44Q196.36-21.40 199.16-21.40L199.16-21.40L199.16-17.68Q198.84-17.72 198.28-17.72L198.28-17.72Q195.16-17.72 193.38-15.86Q191.60-14 191.60-10.56L191.60-10.56L191.60 0L187.76 0L187.76-21.20L191.44-21.20L191.44-17.64Z M228.00 0.24Q224.84 0.24 222.32-1.16Q219.80-2.56 218.38-5.02Q216.96-7.48 216.96-10.60L216.96-10.60Q216.96-13.72 218.38-16.18Q219.80-18.64 222.32-20.02Q224.84-21.40 228.00-21.40L228.00-21.40Q231.16-21.40 233.66-20.02Q236.16-18.64 237.58-16.18Q239.00-13.72 239.00-10.60L239.00-10.60Q239.00-7.48 237.58-5.02Q236.16-2.56 233.66-1.16Q231.16 0.24 228.00 0.24L228.00 0.24ZM228.00-3.12Q230.04-3.12 231.66-4.06Q233.28-5 234.20-6.70Q235.12-8.40 235.12-10.60L235.12-10.60Q235.12-12.80 234.20-14.50Q233.28-16.20 231.66-17.12Q230.04-18.04 228.00-18.04L228.00-18.04Q225.96-18.04 224.34-17.12Q222.72-16.20 221.78-14.50Q220.84-12.80 220.84-10.60L220.84-10.60Q220.84-8.40 221.78-6.70Q222.72-5 224.34-4.06Q225.96-3.12 228.00-3.12L228.00-3.12Z M250.00-17.64Q251.00-19.48 252.96-20.44Q254.92-21.40 257.72-21.40L257.72-21.40L257.72-17.68Q257.40-17.72 256.84-17.72L256.84-17.72Q253.72-17.72 251.94-15.86Q250.16-14 250.16-10.56L250.16-10.56L250.16 0L246.32 0L246.32-21.20L250.00-21.20L250.00-17.64Z M280.88-21.20L284.52-21.20L284.52-2.88Q284.52 2.68 281.76 5.34Q279 8 273.52 8L273.52 8Q270.52 8 267.80 7.18Q265.08 6.36 263.40 4.84L263.40 4.84L265.24 1.88Q266.72 3.16 268.90 3.90Q271.08 4.64 273.40 4.64L273.40 4.64Q277.12 4.64 278.90 2.88Q280.68 1.12 280.68-2.48L280.68-2.48L280.68-4.16Q279.32-2.52 277.34-1.70Q275.36-0.88 273.04-0.88L273.04-0.88Q270-0.88 267.54-2.18Q265.08-3.48 263.68-5.82Q262.28-8.16 262.28-11.16L262.28-11.16Q262.28-14.16 263.68-16.50Q265.08-18.84 267.54-20.12Q270-21.40 273.04-21.40L273.04-21.40Q275.44-21.40 277.50-20.52Q279.56-19.64 280.88-17.92L280.88-17.92L280.88-21.20ZM273.48-4.24Q275.56-4.24 277.22-5.12Q278.88-6 279.82-7.58Q280.76-9.16 280.76-11.16L280.76-11.16Q280.76-14.24 278.72-16.14Q276.68-18.04 273.48-18.04L273.48-18.04Q270.24-18.04 268.20-16.14Q266.16-14.24 266.16-11.16L266.16-11.16Q266.16-9.16 267.10-7.58Q268.04-6 269.70-5.12Q271.36-4.24 273.48-4.24L273.48-4.24Z"/></g>
</svg>
</g><g opacity="1" transform="rotate(0 1373.2847 1049.9542)">
<svg width="356.3536" height="60" x="1373.2847" y="1049.9542" version="1.1" preserveAspectRatio="none" viewBox="1.28 -21.84 175.79999999999998 29.6">
  <g transform="matrix(1 0 0 1 0 0)" class="background"><path id="id-D6z1nYkh7" d="M13.12 0.32Q9.72 0.32 7.02-1.10Q4.32-2.52 2.80-5.04Q1.28-7.56 1.28-10.76L1.28-10.76Q1.28-13.96 2.80-16.48Q4.32-19 7.02-20.42Q9.72-21.84 13.12-21.84L13.12-21.84Q16.52-21.84 19.20-20.42Q21.88-19 23.40-16.48Q24.92-13.96 24.92-10.76L24.92-10.76Q24.92-7.56 23.40-5.04Q21.88-2.52 19.20-1.10Q16.52 0.32 13.12 0.32L13.12 0.32ZM13.12-4.80Q15.52-4.80 17.06-6.42Q18.60-8.04 18.60-10.76L18.60-10.76Q18.60-13.48 17.06-15.10Q15.52-16.72 13.12-16.72L13.12-16.72Q10.72-16.72 9.16-15.10Q7.60-13.48 7.60-10.76L7.60-10.76Q7.60-8.04 9.16-6.42Q10.72-4.80 13.12-4.80L13.12-4.80Z M41.80-21.84Q44.80-21.84 47.26-20.46Q49.72-19.08 51.12-16.58Q52.52-14.08 52.52-10.76L52.52-10.76Q52.52-7.44 51.12-4.94Q49.72-2.44 47.26-1.06Q44.80 0.32 41.80 0.32L41.80 0.32Q37.68 0.32 35.32-2.28L35.32-2.28L35.32 7.76L29.08 7.76L29.08-21.52L35.04-21.52L35.04-19.04Q37.36-21.84 41.80-21.84L41.80-21.84ZM40.72-4.80Q43.12-4.80 44.66-6.42Q46.20-8.04 46.20-10.76L46.20-10.76Q46.20-13.48 44.66-15.10Q43.12-16.72 40.72-16.72L40.72-16.72Q38.32-16.72 36.78-15.10Q35.24-13.48 35.24-10.76L35.24-10.76Q35.24-8.04 36.78-6.42Q38.32-4.80 40.72-4.80L40.72-4.80Z M77.76-10.68Q77.76-10.56 77.64-9L77.64-9L61.36-9Q61.80-7 63.44-5.84Q65.08-4.68 67.52-4.68L67.52-4.68Q69.20-4.68 70.50-5.18Q71.80-5.68 72.92-6.76L72.92-6.76L76.24-3.16Q73.20 0.32 67.36 0.32L67.36 0.32Q63.72 0.32 60.92-1.10Q58.12-2.52 56.60-5.04Q55.08-7.56 55.08-10.76L55.08-10.76Q55.08-13.92 56.58-16.46Q58.08-19 60.70-20.42Q63.32-21.84 66.56-21.84L66.56-21.84Q69.72-21.84 72.28-20.48Q74.84-19.12 76.30-16.58Q77.76-14.04 77.76-10.68L77.76-10.68ZM66.60-17.12Q64.48-17.12 63.04-15.92Q61.60-14.72 61.28-12.64L61.28-12.64L71.88-12.64Q71.56-14.68 70.12-15.90Q68.68-17.12 66.60-17.12L66.60-17.12Z M95-21.84Q99-21.84 101.46-19.44Q103.92-17.04 103.92-12.32L103.92-12.32L103.92 0L97.68 0L97.68-11.36Q97.68-13.92 96.56-15.18Q95.44-16.44 93.32-16.44L93.32-16.44Q90.96-16.44 89.56-14.98Q88.16-13.52 88.16-10.64L88.16-10.64L88.16 0L81.92 0L81.92-21.52L87.88-21.52L87.88-19Q89.12-20.36 90.96-21.10Q92.80-21.84 95-21.84L95-21.84Z M116.80 0.32Q114.12 0.32 111.56-0.34Q109.00-1 107.48-2L107.48-2L109.56-6.48Q111-5.56 113.04-4.98Q115.08-4.40 117.04-4.40L117.04-4.40Q121-4.40 121-6.36L121-6.36Q121-7.28 119.92-7.68Q118.84-8.08 116.60-8.36L116.60-8.36Q113.96-8.76 112.24-9.28Q110.52-9.80 109.26-11.12Q108.00-12.44 108.00-14.88L108.00-14.88Q108.00-16.92 109.18-18.50Q110.36-20.08 112.62-20.96Q114.88-21.84 117.96-21.84L117.96-21.84Q120.24-21.84 122.50-21.34Q124.76-20.84 126.24-19.96L126.24-19.96L124.16-15.52Q121.32-17.12 117.96-17.12L117.96-17.12Q115.96-17.12 114.96-16.56Q113.96-16 113.96-15.12L113.96-15.12Q113.96-14.12 115.04-13.72Q116.12-13.32 118.48-12.96L118.48-12.96Q121.12-12.52 122.80-12.02Q124.48-11.52 125.72-10.20Q126.96-8.88 126.96-6.52L126.96-6.52Q126.96-4.52 125.76-2.96Q124.56-1.40 122.26-0.54Q119.96 0.32 116.80 0.32L116.80 0.32Z M141.04 0.32Q137.64 0.32 134.94-1.10Q132.24-2.52 130.72-5.04Q129.20-7.56 129.20-10.76L129.20-10.76Q129.20-13.96 130.72-16.48Q132.24-19 134.94-20.42Q137.64-21.84 141.04-21.84L141.04-21.84Q144.44-21.84 147.12-20.42Q149.80-19 151.32-16.48Q152.84-13.96 152.84-10.76L152.84-10.76Q152.84-7.56 151.32-5.04Q149.80-2.52 147.12-1.10Q144.44 0.32 141.04 0.32L141.04 0.32ZM141.04-4.80Q143.44-4.80 144.98-6.42Q146.52-8.04 146.52-10.76L146.52-10.76Q146.52-13.48 144.98-15.10Q143.44-16.72 141.04-16.72L141.04-16.72Q138.64-16.72 137.08-15.10Q135.52-13.48 135.52-10.76L135.52-10.76Q135.52-8.04 137.08-6.42Q138.64-4.80 141.04-4.80L141.04-4.80Z M177.08 0L170.00 0L165.28-6.60L160.40 0L153.60 0L161.88-10.84L153.88-21.52L160.88-21.52L165.44-15.24L170.12-21.52L176.76-21.52L168.76-11L177.08 0Z"/></g>
</svg>
</g><g opacity="1" transform="rotate(0 1227.2849 1019.9542)">
<svg width="119.9998" height="120" x="1227.2849" y="1019.9542" version="1.1" preserveAspectRatio="none" viewBox="0 0 119.9998 120">
  <defs><rect x="2.399996" y="2.399996" width="115.19980799999999" height="115.200008" rx="0px" ry="0px" id="id-tBXipXk0b1754240045544"></rect></defs><use class="background icon1-str" style="stroke-width:4.799992;" xlink:href="#id-tBXipXk0b1754240045544"></use>
</svg>
</g><g opacity="1" transform="rotate(0 1270.6182 1029.9542)">
<svg width="33.3333" height="100" x="1270.6182" y="1029.9542" version="1.1" preserveAspectRatio="none" viewBox="18 2 16 48">
  <g transform="matrix(1 0 0 1 0 0)" class="icon1"><path d="M23.9368896,38.6708984c1.8886719-0.9033203,3.0615234-2.7016602,3.0615234-4.6923828v-4.0300293H27  c3.8599854,0,7-3.1400146,7-7V10.0784302c0-0.5499878-0.4500122-1-1-1h-2.5015869V3c0-0.5522461-0.4472656-1-1-1s-1,0.4477539-1,1  v6.0784302h-6.1669922V3c0-0.5522461-0.4472656-1-1-1s-1,0.4477539-1,1v6.0784302H19  c-0.2699585,0-0.5199585,0.1000366-0.7099609,0.2900391S18,9.8084717,18,10.0784302v12.8700562  c0,3.859436,3.1392212,6.9990845,6.9984131,6.999939v4.0300903c0,1.2133789-0.7373047,2.3203125-1.9248047,2.8886719  c-2.3740234,1.1357422-3.9082031,3.5830078-3.9082031,6.234375c-0.0009766,1.8071289,0.7177734,3.5292969,2.0224609,4.8481445  C22.4954834,49.2719727,24.2044678,50,25.9984131,50c3.7675781-0.0004883,6.8330078-3.0947266,6.8330078-6.8974609  c0-0.5522461-0.4472656-1-1-1s-1,0.4477539-1,1c0,2.7001953-2.1679688,4.8969727-4.8330078,4.8974609  c-1.2558594,0-2.4589844-0.5170898-3.3886719-1.456543c-0.9316406-0.9423828-1.4443359-2.1640625-1.4443359-3.4414063  C21.1654053,41.2158203,22.2532959,39.4765625,23.9368896,38.6708984z M22.6600342,20.6884766  c0-1.8500366,1.5-3.3600464,3.3399658-3.3600464c1.8400269,0,3.3300171,1.5100098,3.3300171,3.3600464  c0,1.8599854-1.4899902,3.3599854-3.3300171,3.3599854C24.1600342,24.0484619,22.6600342,22.5484619,22.6600342,20.6884766z"></path></g>
</svg>
</g></svg></svg>